<?xml version="1.0" encoding="UTF-8" standalone="no"?>
<!-- Created with Inkscape (http://www.inkscape.org/) -->

<svg
   xmlns:dc="http://purl.org/dc/elements/1.1/"
   xmlns:cc="http://creativecommons.org/ns#"
   xmlns:rdf="http://www.w3.org/1999/02/22-rdf-syntax-ns#"
   xmlns:svg="http://www.w3.org/2000/svg"
   xmlns="http://www.w3.org/2000/svg"
   xmlns:sodipodi="http://sodipodi.sourceforge.net/DTD/sodipodi-0.dtd"
   xmlns:inkscape="http://www.inkscape.org/namespaces/inkscape"
   width="96px"
   height="96px"
   viewBox="0 0 96 96"
   version="1.1"
   id="SVGRoot"
   inkscape:version="0.92.4 (5da689c313, 2019-01-14)"
   sodipodi:docname="icon.svg"
   inkscape:export-filename="C:\Users\User\Desktop\Apps\React\react-task-timer-list\public\newLogo512.png"
   inkscape:export-xdpi="577.40967"
   inkscape:export-ydpi="577.40967">
  <defs
     id="defs4518">
    <filter
       inkscape:collect="always"
       style="color-interpolation-filters:sRGB"
       id="filter2922"
       x="-0.012"
       width="1.024"
       y="-0.012"
       height="1.024">
      <feGaussianBlur
         inkscape:collect="always"
         stdDeviation="0.3580505"
         id="feGaussianBlur2924" />
    </filter>
  </defs>
  <sodipodi:namedview
     id="base"
     pagecolor="#ffffff"
     bordercolor="#666666"
     borderopacity="1.0"
     inkscape:pageopacity="0.0"
     inkscape:pageshadow="2"
     inkscape:zoom="8"
     inkscape:cx="38.53771"
     inkscape:cy="40.194074"
     inkscape:document-units="px"
     inkscape:current-layer="layer2"
     showgrid="false"
     inkscape:window-width="1920"
     inkscape:window-height="1046"
     inkscape:window-x="-11"
     inkscape:window-y="-11"
     inkscape:window-maximized="1"
     inkscape:grid-bbox="true">
    <inkscape:grid
       type="xygrid"
       id="grid5649" />
  </sodipodi:namedview>
  <metadata
     id="metadata4521">
    <rdf:RDF>
      <cc:Work
         rdf:about="">
        <dc:format>image/svg+xml</dc:format>
        <dc:type
           rdf:resource="http://purl.org/dc/dcmitype/StillImage" />
        <dc:title></dc:title>
      </cc:Work>
    </rdf:RDF>
  </metadata>
  <g
     inkscape:groupmode="layer"
     id="layer5"
     inkscape:label="background"
     style="display:inline;opacity:1">
    <circle
       style="display:inline;opacity:1;fill:#0fa3b1;fill-opacity:1;fill-rule:evenodd;stroke:none;stroke-width:1;stroke-linecap:round;stroke-linejoin:round;stroke-miterlimit:4;stroke-dasharray:none;stroke-opacity:1;paint-order:markers fill stroke"
       id="path5661"
       cx="50.694611"
       cy="45.674824"
       r="42.5625"
       transform="rotate(3.0560024)" />
  </g>
  <g
     inkscape:groupmode="layer"
     id="layer1"
     inkscape:label="ripple blur"
     style="display:none;opacity:1">
    <g
       id="g978">
      <g
         style="stroke:#13acbd;stroke-width:3;stroke-miterlimit:4;stroke-dasharray:none;stroke-dashoffset:0;stroke-opacity:1;filter:url(#filter2922)"
         id="g852">
        <circle
           style="opacity:1;fill:none;fill-opacity:1;fill-rule:evenodd;stroke:#13acbd;stroke-width:3;stroke-linecap:round;stroke-linejoin:round;stroke-miterlimit:4;stroke-dasharray:none;stroke-dashoffset:0;stroke-opacity:1;paint-order:markers fill stroke"
           id="path843"
           cx="48.125"
           cy="47.875"
           r="35.80505" />
        <circle
           style="opacity:1;fill:none;fill-opacity:1;fill-rule:evenodd;stroke:#13acbd;stroke-width:3;stroke-linecap:round;stroke-linejoin:round;stroke-miterlimit:4;stroke-dasharray:none;stroke-dashoffset:0;stroke-opacity:1;paint-order:markers fill stroke"
           id="path845"
           cx="47.125"
           cy="49.5"
           r="25.761324" />
      </g>
    </g>
  </g>
  <g
     inkscape:groupmode="layer"
     id="layer3"
     inkscape:label="name ripples"
     style="display:none;opacity:1">
    <g
       id="g5774"
       style="opacity:1;stroke:#0f8795;stroke-width:1.25;stroke-miterlimit:4;stroke-dasharray:none;stroke-opacity:1"
       transform="rotate(3.0560024,48.1875,48.3125)">
      <path
         sodipodi:nodetypes="csscssc"
         inkscape:connector-curvature="0"
         id="path5235"
         d="m 35.261412,39.993416 c 0.401571,-0.432371 0.908426,-0.622731 1.374394,-0.617417 1.870703,0.02134 3.021419,-1.47776 4.364371,-1.930037 1.313557,-0.442377 2.981707,-1.499213 5.874823,-1.497088 3.708756,-0.123321 5.743437,1.0124 7.655024,2.302863 1.556671,1.050867 1.827887,1.989771 3.468174,3.084773 1.469198,0.980788 2.315839,1.150883 4.464242,1.301696"
         style="opacity:1;fill:none;stroke:#0f8795;stroke-width:1.25;stroke-linecap:round;stroke-linejoin:round;stroke-miterlimit:4;stroke-dasharray:none;stroke-opacity:1" />
      <path
         sodipodi:nodetypes="ccsc"
         inkscape:connector-curvature="0"
         id="path5585"
         d="m 39.952989,57.367342 c -2.53128,3.199702 0.456303,6.034175 6.922011,6.382658 5.262904,-0.122 8.510649,-3.463663 11.809778,-6.455503 2.008399,-1.821331 1.889307,-1.907566 3.954804,-3.095504"
         style="fill:none;stroke:#0f8795;stroke-width:1.25;stroke-linecap:round;stroke-linejoin:miter;stroke-miterlimit:4;stroke-dasharray:none;stroke-opacity:1" />
      <path
         sodipodi:nodetypes="csccsc"
         inkscape:connector-curvature="0"
         id="path5587"
         d="m 26.968843,38.375145 c 1.46201,-1.477931 2.826413,-4.328637 3.718724,-5.716609 2.175671,-3.384212 4.064291,-4.44636 7.658404,-6.117798 8.085019,-2.95407 13.066218,-1.770567 20.151427,1.178077 5.327278,2.847992 8.523862,6.637549 10.659561,10.85336 0.459662,0.90736 0.894747,1.891545 0.796166,2.94345"
         style="fill:none;stroke:#0f8795;stroke-width:1.25;stroke-linecap:round;stroke-linejoin:miter;stroke-miterlimit:4;stroke-dasharray:none;stroke-opacity:1" />
      <path
         sodipodi:nodetypes="csscccc"
         inkscape:connector-curvature="0"
         id="path5589"
         d="m 23.546875,64.578125 c -1.273308,0.704639 -0.565386,2.99952 0.996749,2.811828 1.567051,-0.188282 3.610783,-0.605012 5.387466,0.522511 2.712964,1.721708 6.241084,4.048545 9.001152,4.840954 7.374474,2.489825 13.088927,0.93335 18.605747,-1.104854 5.84806,-2.472573 10.082443,-7.995971 11.822664,-12.54482 1.580091,-4.03518 1.604335,-4.595272 4.326847,-5.320924"
         style="fill:none;stroke:#0f8795;stroke-width:1.25;stroke-linecap:round;stroke-linejoin:round;stroke-miterlimit:4;stroke-dasharray:none;stroke-opacity:1" />
      <path
         sodipodi:nodetypes="csscccssccccc"
         inkscape:connector-curvature="0"
         id="path5591"
         d="M 82.116138,39.984516 C 80.939532,39.738659 79.593943,37.413744 79.261629,36.748454 78.874894,35.974214 78.068223,34.605638 77.672618,32.807312 76.274028,26.449657 73.536466,24.519419 67.84375,19.5625 58.279897,13.055546 47.883642,12.254559 39.160534,14.52535 24.468375,18.402277 15.845819,30.574914 13.940864,43.924175 c -0.416196,4.150483 -0.22607,7.577256 0.287398,10.452259 0.747867,4.187443 2.18167,7.204365 3.427059,9.582031 2.435684,4.650147 5.197135,6.844898 7.918349,10.231729 6.950472,5.319698 14.184531,8.299804 21.80133,8.122306 9.580384,0.943216 15.274173,-3.060144 21.3125,-6.625 4.054792,-3.248582 7.12071,-6.552101 9.054403,-9.918521 1.314419,-3.305999 -0.267082,-5.590406 1.820597,-9.300229"
         style="fill:none;stroke:#0f8795;stroke-width:1.25;stroke-linecap:round;stroke-linejoin:miter;stroke-miterlimit:4;stroke-dasharray:none;stroke-opacity:1" />
    </g>
  </g>
  <g
     inkscape:groupmode="layer"
     id="layer2"
     inkscape:label="name"
     style="display:inline;opacity:1">
    <g
       id="g5691"
       style="display:inline;opacity:1;stroke:#fff6e9;stroke-width:1.5;stroke-miterlimit:4;stroke-dasharray:none;stroke-opacity:0.94059406"
       transform="matrix(2.4632841,0.13150965,-0.13150965,2.4632841,-7.1295823,-80.842204)">
      <path
         sodipodi:nodetypes="cccccccccc"
         inkscape:connector-curvature="0"
         id="path5213"
         d="m 23.546875,64.578125 c 1.488992,-1.014802 2.387423,-2.198337 3.055192,-3.447774 0.657245,-1.339034 0.90933,-2.735947 0.741623,-4.192831 -0.159544,-0.782567 -0.338473,-1.572887 -0.70307,-2.437475 L 24.671975,50.6095 c -0.580483,-1.543466 -1.078384,-2.996985 -1.041753,-3.868306 -0.09323,-1.034678 -0.02375,-2.046124 0.09922,-3.200125 0.197618,-0.754967 0.319526,-1.464508 0.795494,-2.386485 L 25.234483,40.1095 c 0.516916,-0.578118 1.09963,-1.156237 1.73436,-1.734355"
         style="fill:none;stroke:#fff6e9;stroke-width:1.5;stroke-linecap:round;stroke-linejoin:round;stroke-miterlimit:4;stroke-dasharray:none;stroke-opacity:0.94059406" />
      <path
         sodipodi:nodetypes="cc"
         inkscape:connector-curvature="0"
         id="path5657"
         d="m 19.1875,51.5 c 2.664116,-2.604555 6.732635,-0.04852 10.875,-2.5"
         style="fill:none;stroke:#fff6e9;stroke-width:1.5;stroke-linecap:round;stroke-linejoin:round;stroke-miterlimit:4;stroke-dasharray:none;stroke-opacity:0.94059406" />
    </g>
  </g>
</svg>
