<?xml version="1.0" encoding="UTF-8" standalone="no"?>
<!-- Created with Inkscape (http://www.inkscape.org/) -->

<svg
   xmlns:dc="http://purl.org/dc/elements/1.1/"
   xmlns:cc="http://creativecommons.org/ns#"
   xmlns:rdf="http://www.w3.org/1999/02/22-rdf-syntax-ns#"
   xmlns:svg="http://www.w3.org/2000/svg"
   xmlns="http://www.w3.org/2000/svg"
   xmlns:sodipodi="http://sodipodi.sourceforge.net/DTD/sodipodi-0.dtd"
   xmlns:inkscape="http://www.inkscape.org/namespaces/inkscape"
   width="96px"
   height="96px"
   viewBox="0 0 96 96"
   version="1.1"
   id="SVGRoot"
   inkscape:version="0.92.4 (5da689c313, 2019-01-14)"
   sodipodi:docname="icon.svg">
  <defs
     id="defs4518">
    <marker
       inkscape:stockid="Arrow1Lstart"
       orient="auto"
       refY="0.0"
       refX="0.0"
       id="marker5533"
       style="overflow:visible"
       inkscape:isstock="true">
      <path
         id="path5531"
         d="M 0.0,0.0 L 5.0,-5.0 L -12.5,0.0 L 5.0,5.0 L 0.0,0.0 z "
         style="fill-rule:evenodd;stroke:#000000;stroke-width:1pt;stroke-opacity:1;fill:#000000;fill-opacity:1"
         transform="scale(0.8) translate(12.5,0)" />
    </marker>
    <marker
       inkscape:stockid="Arrow1Lstart"
       orient="auto"
       refY="0.0"
       refX="0.0"
       id="Arrow1Lstart"
       style="overflow:visible"
       inkscape:isstock="true">
      <path
         id="path5237"
         d="M 0.0,0.0 L 5.0,-5.0 L -12.5,0.0 L 5.0,5.0 L 0.0,0.0 z "
         style="fill-rule:evenodd;stroke:#000000;stroke-width:1pt;stroke-opacity:1;fill:#000000;fill-opacity:1"
         transform="scale(0.8) translate(12.5,0)" />
    </marker>
  </defs>
  <sodipodi:namedview
     id="base"
     pagecolor="#ffffff"
     bordercolor="#666666"
     borderopacity="1.0"
     inkscape:pageopacity="0.0"
     inkscape:pageshadow="2"
     inkscape:zoom="8"
     inkscape:cx="27.868444"
     inkscape:cy="50.318447"
     inkscape:document-units="px"
     inkscape:current-layer="layer3"
     showgrid="false"
     inkscape:window-width="1920"
     inkscape:window-height="1046"
     inkscape:window-x="-11"
     inkscape:window-y="-11"
     inkscape:window-maximized="1"
     inkscape:grid-bbox="true">
    <inkscape:grid
       type="xygrid"
       id="grid5649" />
  </sodipodi:namedview>
  <metadata
     id="metadata4521">
    <rdf:RDF>
      <cc:Work
         rdf:about="">
        <dc:format>image/svg+xml</dc:format>
        <dc:type
           rdf:resource="http://purl.org/dc/dcmitype/StillImage" />
        <dc:title></dc:title>
      </cc:Work>
    </rdf:RDF>
  </metadata>
  <g
     inkscape:groupmode="layer"
     id="layer5"
     inkscape:label="Layer 4"
     style="display:inline;opacity:1">
    <circle
       style="display:inline;opacity:1;fill:#0fa3b1;fill-opacity:1;fill-rule:evenodd;stroke:none;stroke-width:1;stroke-linecap:round;stroke-linejoin:round;stroke-miterlimit:4;stroke-dasharray:none;stroke-opacity:1;paint-order:markers fill stroke"
       id="path5661"
       cx="50.694611"
       cy="45.674824"
       r="42.5625"
       transform="rotate(3.0560024)" />
  </g>
  <g
     inkscape:groupmode="layer"
     id="layer3"
     inkscape:label="Layer 3"
     style="display:inline;opacity:1">
    <g
       id="g5774"
       style="opacity:1;stroke:#0f8391;stroke-opacity:1"
       transform="rotate(3.0560024,48.1875,48.3125)">
      <path
         sodipodi:nodetypes="csscssc"
         inkscape:connector-curvature="0"
         id="path5235"
         d="m 35.261412,39.993416 c 0.401571,-0.432371 0.908426,-0.622731 1.374394,-0.617417 1.870703,0.02134 3.021419,-1.47776 4.364371,-1.930037 1.313557,-0.442377 2.981707,-1.499213 5.874823,-1.497088 3.708756,-0.123321 5.743437,1.0124 7.655024,2.302863 1.556671,1.050867 2.4189,2.696784 4.353157,3.081783 1.56625,0.31175 1.780916,0.250042 3.929319,0.400855"
         style="opacity:1;fill:none;stroke:#0f8391;stroke-width:1;stroke-linecap:round;stroke-linejoin:round;stroke-miterlimit:4;stroke-dasharray:none;stroke-opacity:1" />
      <path
         sodipodi:nodetypes="ccsc"
         inkscape:connector-curvature="0"
         id="path5585"
         d="m 39.952989,57.367342 c -2.53128,3.199702 0.456303,6.034175 6.922011,6.382658 5.262904,-0.122 8.863593,-3.11554 11.809778,-6.455503 1.985468,-2.250839 1.776348,-1.678697 4.050535,-2.474725"
         style="fill:none;stroke:#0f8391;stroke-width:1px;stroke-linecap:round;stroke-linejoin:miter;stroke-opacity:1" />
      <path
         sodipodi:nodetypes="csccsc"
         inkscape:connector-curvature="0"
         id="path5587"
         d="m 26.968843,38.375145 c 1.46201,-1.477931 2.826413,-4.328637 3.718724,-5.716609 2.175671,-3.384212 4.064291,-4.44636 7.658404,-6.117798 8.085019,-2.95407 13.066218,-1.770567 20.151427,1.178077 5.327278,2.847992 8.523862,6.637549 10.659561,10.85336 0.459662,0.90736 0.894747,1.891545 0.796166,2.94345"
         style="fill:none;stroke:#0f8391;stroke-width:1px;stroke-linecap:round;stroke-linejoin:miter;stroke-opacity:1" />
      <path
         sodipodi:nodetypes="csscccc"
         inkscape:connector-curvature="0"
         id="path5589"
         d="m 23.546875,64.578125 c -1.273308,0.704639 -0.565386,2.99952 0.996749,2.811828 1.567051,-0.188282 3.610783,-0.605012 5.387466,0.522511 2.712964,1.721708 6.241084,4.048545 9.001152,4.840954 7.374474,2.489825 13.088927,0.93335 18.605747,-1.104854 5.84806,-2.472573 10.082443,-7.995971 11.822664,-12.54482 1.580091,-4.03518 1.604335,-4.595272 4.326847,-5.320924"
         style="fill:none;stroke:#0f8391;stroke-width:1px;stroke-linecap:round;stroke-linejoin:round;stroke-opacity:1" />
      <path
         sodipodi:nodetypes="csscccssccccc"
         inkscape:connector-curvature="0"
         id="path5591"
         d="M 81.972541,39.053347 C 80.795935,38.80749 79.593943,37.413744 79.261629,36.748454 78.874894,35.974214 78.068223,34.605638 77.672618,32.807312 76.274028,26.449657 73.536466,24.519419 67.84375,19.5625 58.279897,13.055546 47.883642,12.254559 39.160534,14.52535 24.468375,18.402277 15.845819,30.574914 13.940864,43.924175 c -0.416196,4.150483 -0.22607,7.577256 0.287398,10.452259 0.747867,4.187443 2.18167,7.204365 3.427059,9.582031 2.435684,4.650147 5.197135,6.844898 7.918349,10.231729 6.950472,5.319698 14.184531,8.299804 21.80133,8.122306 9.580384,0.943216 15.274173,-3.060144 21.3125,-6.625 4.054792,-3.248582 7.12071,-6.552101 9.054403,-9.918521 1.314419,-3.305999 -0.267082,-5.590406 1.820597,-9.300229"
         style="fill:none;stroke:#0f8391;stroke-width:1px;stroke-linecap:round;stroke-linejoin:miter;stroke-opacity:1" />
    </g>
  </g>
  <g
     inkscape:groupmode="layer"
     id="layer2"
     inkscape:label="Layer 2"
     style="display:inline;opacity:1">
    <g
       id="g5691"
       style="display:inline;opacity:1;stroke:#fff6e9;stroke-opacity:0.94059406"
       transform="rotate(3.0560024,48.1875,48.3125)">
      <path
         sodipodi:nodetypes="cccccccccc"
         inkscape:connector-curvature="0"
         id="path5213"
         d="m 23.546875,64.578125 c 1.488992,-1.014802 2.387423,-2.198337 3.055192,-3.447774 0.657245,-1.339034 0.90933,-2.735947 0.741623,-4.192831 -0.159544,-0.782567 -0.338473,-1.572887 -0.70307,-2.437475 L 24.671975,50.6095 c -0.580483,-1.543466 -1.078384,-2.996985 -1.041753,-3.868306 -0.09323,-1.034678 -0.02375,-2.046124 0.09922,-3.200125 0.197618,-0.754967 0.319526,-1.464508 0.795494,-2.386485 L 25.234483,40.1095 c 0.516916,-0.578118 1.09963,-1.156237 1.73436,-1.734355"
         style="fill:none;stroke:#fff6e9;stroke-width:1px;stroke-linecap:round;stroke-linejoin:round;stroke-opacity:0.94059406" />
      <path
         sodipodi:nodetypes="cccccccc"
         inkscape:connector-curvature="0"
         id="path5217"
         d="m 35.261412,39.993416 c -0.344397,0.465029 -1.049426,2.683171 -1.208835,3.620187 -0.581143,2.852948 -0.94144,6.241891 -0.700977,9.628585 0.274373,1.610986 0.346356,1.432452 0.507791,1.914057 0.193891,0.357521 0.4426,0.726006 0.843732,1.124975 0.311097,0.392678 0.689841,0.690311 1.17185,0.937475 0.36376,0.121006 0.748903,0.220042 1.258235,0.237067 l 2.819781,-0.08842"
         style="fill:none;stroke:#fff6e9;stroke-width:1px;stroke-linecap:round;stroke-linejoin:round;stroke-opacity:0.94059406" />
      <path
         sodipodi:nodetypes="cssccssc"
         inkscape:connector-curvature="0"
         id="path5219"
         d="m 47.404665,43.314051 c -2.827059,-0.299115 -6.517656,1.725566 -6.4581,6.423251 0.01706,1.345989 0.922508,2.919011 1.844236,3.791877 0.891417,0.844162 1.681024,1.157241 2.769457,1.60972 0.948686,0.311005 2.189324,0.145621 3.138246,-0.12121 0.487819,-0.08475 1.529505,-0.519944 2.576799,-1.449836 1.049166,-0.931555 1.945414,-2.473187 1.742927,-4.908944 -0.205774,-2.475292 -1.820247,-4.894487 -5.613565,-5.344858"
         style="fill:none;stroke:#fff6e9;stroke-width:1px;stroke-linecap:round;stroke-linejoin:round;stroke-opacity:0.94059406" />
      <path
         sodipodi:nodetypes="ccsccc"
         inkscape:connector-curvature="0"
         id="path5221"
         d="m 64.1875,41.65625 c -1.809222,0.201237 -3.527353,-0.164582 -5.169006,2.326761 -1.188705,1.782293 -1.354259,2.669686 -1.465125,3.381471 -0.09103,0.584435 -0.05093,1.054516 -0.02208,1.838608 0.284147,1.32418 1.422202,3.155385 2.702548,4.303765 2.027362,1.321763 0.37254,0.677855 4.578602,1.82115"
         style="fill:none;stroke:#fff6e9;stroke-width:1px;stroke-linecap:round;stroke-linejoin:round;stroke-opacity:0.94059406" />
      <path
         sodipodi:nodetypes="cscsc"
         inkscape:connector-curvature="0"
         id="path5223"
         d="m 69.953125,41.515625 c -0.47533,2.694292 -0.101277,5.133988 0.148203,7.288507 0.331732,2.864847 1.890693,4.658694 3.586172,4.978688 0.941982,-1.24e-4 2.496803,-0.536647 2.8552,-2.784568 0.378839,-2.376131 -0.07603,-6.403899 -0.964645,-9.388772"
         style="fill:none;stroke:#fff6e9;stroke-width:1px;stroke-linecap:round;stroke-linejoin:round;stroke-opacity:0.94059406" />
      <path
         sodipodi:nodetypes="cccccc"
         inkscape:connector-curvature="0"
         id="path5225"
         d="m 79.5625,56.46875 c 2.18691,-0.891359 3.19563,-2.283999 3.358265,-4.104799 -0.156717,-1.646132 -0.90545,-3.295585 -1.834272,-4.735485 -0.990827,-1.709149 -1.277919,-3.310087 -1.264515,-4.97032 -0.05043,-1.83254 0.485756,-2.489435 1.275563,-3.104799 1.648621,-0.810582 2.366394,-0.605793 3.152499,-0.381357"
         style="fill:none;stroke:#fff6e9;stroke-width:1px;stroke-linecap:round;stroke-linejoin:round;stroke-opacity:0.94059406" />
      <path
         sodipodi:nodetypes="cc"
         inkscape:connector-curvature="0"
         id="path5657"
         d="m 19.1875,51.5 c 2.664116,-2.604555 6.732635,-0.04852 10.875,-2.5"
         style="fill:none;stroke:#fff6e9;stroke-width:1px;stroke-linecap:round;stroke-linejoin:round;stroke-opacity:0.94059406" />
    </g>
  </g>
</svg>
